/* XPM */
static char *_966d1f33bfb4d2ef0903d3b6c8b5084a5FszHAo8SoReMoH[] = {
/* columns rows colors chars-per-pixel */
"64 64 157 2 ",
"   c #000F2E",
".  c #03122F",
"X  c #001331",
"o  c #691E00",
"O  c #7D2C00",
"+  c #30384B",
"@  c #293654",
"#  c #2B3854",
"$  c #55545E",
"%  c #585760",
"&  c #786E71",
"*  c #75787A",
"=  c #802E01",
"-  c #863400",
";  c #8A3601",
":  c #863C00",
">  c #8E3900",
",  c #933E06",
"<  c #944201",
"1  c #9A4500",
"2  c #974801",
"3  c #9E4B00",
"4  c #9E5301",
"5  c #964718",
"6  c #A34F00",
"7  c #A55201",
"8  c #A95501",
"9  c #A05800",
"0  c #A95E00",
"q  c #A6570F",
"w  c #B25E00",
"e  c #A75915",
"r  c #AB6101",
"t  c #B46401",
"y  c #B66A01",
"u  c #BC6E00",
"i  c #BF7000",
"p  c #B6700E",
"a  c #BC730D",
"s  c #BB761E",
"d  c #974B20",
"f  c #984F27",
"g  c #9C562E",
"h  c #AB6420",
"j  c #B1692A",
"k  c #A87227",
"l  c #BB7A26",
"z  c #A8693A",
"x  c #B5763A",
"c  c #C17300",
"v  c #C57A01",
"b  c #C07611",
"n  c #C37B11",
"m  c #9A7340",
"M  c #8D7559",
"N  c #B17A4A",
"B  c #807668",
"V  c #857978",
"C  c #CB8001",
"Z  c #C2863B",
"A  c #DE9733",
"S  c #E8992A",
"D  c #E79B33",
"F  c #F1A132",
"G  c #FDA832",
"H  c #FBAB3E",
"J  c #B7886A",
"K  c #BA9168",
"L  c #BE8F71",
"P  c #B79375",
"I  c #BCA47D",
"U  c #C1824F",
"Y  c #C0845F",
"T  c #E39F43",
"R  c #DFA457",
"E  c #DFA458",
"W  c #EDA74A",
"Q  c #F9AE48",
"!  c #C59774",
"~  c #C9A279",
"^  c #284787",
"/  c #294887",
"(  c #294889",
")  c #646E8B",
"_  c #6B798D",
"`  c #7D7888",
"'  c #617A9E",
"]  c #4267A6",
"[  c #577BAD",
"{  c #4672B8",
"}  c #517CB8",
"|  c #517FC1",
" . c #5585CD",
".. c #5788CE",
"X. c #5989CF",
"o. c #5787D0",
"O. c #5C8BD1",
"+. c #6191D3",
"@. c #72A1DB",
"#. c #73A0E1",
"$. c #7EADE2",
"%. c #80809A",
"&. c #A39088",
"*. c #AE988F",
"=. c #B49C92",
"-. c #BBA295",
";. c #A198AA",
":. c #91A8BA",
">. c #B9A7A7",
",. c #A9A7BE",
"<. c #B9ACB5",
"1. c #CAA98C",
"2. c #D4AA88",
"3. c #C5AA9A",
"4. c #CEB09F",
"5. c #E3B999",
"6. c #CEB4A0",
"7. c #D5B6A3",
"8. c #DBBBA7",
"9. c #D7B9A9",
"0. c #D9BBA9",
"q. c #D5C2BF",
"w. c #E3C0AA",
"e. c #F9D0B5",
"r. c #FCD5B9",
"t. c #FFDBBE",
"y. c #B3ACC1",
"u. c #B3B3CC",
"i. c #B8B0C8",
"p. c #C1BBD7",
"a. c #D9C8C9",
"s. c #D7CBD3",
"d. c #D8CFDC",
"f. c #E1CECA",
"g. c #EFD1C6",
"h. c #FBDBC5",
"j. c #F7D8CB",
"k. c #FEDDC8",
"l. c #FCE0CF",
"z. c #FFE5D0",
"x. c #FDE4D3",
"c. c #FEE8D7",
"v. c #FFE9DA",
"b. c #C9C6E2",
"n. c #C6C5EB",
"m. c #CACBED",
"M. c #D8D1E3",
"N. c #D9D6EE",
"B. c #C9CBF1",
"V. c #D3D3F2",
"C. c #DBD9F5",
"Z. c #D5D9FB",
"A. c #DDDCFA",
"S. c #E1DDEF",
"D. c #FEEFE5",
"F. c #FFF0E5",
"G. c #EBE7F1",
/* pixels */
"X + t.e.F.>.^ / / / ] $.$.+...@.$.$.$.$.$.+. . .X.O.#. .+.$.$.$.:.:.:.$.:.I A u p k m M B * _ ' [ } |  . .o.{ ( ( / / %.v.h.r.V ",
"X & r.h.v.w.7.7.7.7.9.9.9.9.9.9.9.9.9.9.9.9.9.9.9.9.9.9.9.9.9.9.9.9.0.9.F F S u u u u u u u u u u i a q e j x U Y ! 2.5.k.c.r.-.",
"X &.r.l.c.$                                                           . G F D u u u u u u u i i u u i 6 6 6 6 6 > > ; , k.D.r.4.",
"X *.r.x.x.% X X X X X X X X X X X X X X X X X X X X X X X X X X X X X X G F D u u i i i u u u i u u i 6 6 6 6 6 > > > , k.F.r.7.",
"X *.r.x.x.% X X X X X X X X X X X X X X X X X X X X X X X X X X X X X X G F S u u r 3 7 7 7 0 0 0 u i 6 6 7 7 6 , > > , k.F.r.7.",
"X *.r.x.x.% X X X X X X X X X X X X X X X X X X X X X X X X X X X X X X G F S u u 0 i C v c i u 9 u c : ; ; ; ; O O ; , k.F.r.7.",
"X *.r.x.x.% X X X X X X X X X X X X X X X X X X X X X X X X X X X X X X G F S u u 0 r i i c c v 0 u c : w w t w 1 > ; , k.F.e.7.",
"X *.r.x.x.% X X X X X X X X X X X X X X X X X X X X X X X X X X X X X X G F S u u 0 r u u u u i 9 u c : 6 6 6 6 , ; - , k.F.e.7.",
"X *.r.x.x.% X X X X X X X X X X X X X X X X X X X X X X X X X X X X X X G F S u u 0 r u u u u i 9 u c : 6 6 6 6 > - - , k.D.e.7.",
"X *.r.x.x.% X X X X X X X X X X X X X X X X X X X X X X X X X X X X X X G F S u u 0 r u u u u i 9 u c : 6 6 6 6 > - - , k.D.e.7.",
"X *.r.x.x.% X X X X X X X X X X X X X X X X X X X X X X X X X X X X X X G F S u u 0 r u u u u i 9 u c : 6 6 6 6 > - - , k.D.r.7.",
"X *.r.x.x.% X X X X X X X X X X X X X X X X X X X X X X X X X X X X X X G F S u u 0 r u u u u i 9 u c : 6 6 6 6 > - - , k.F.r.7.",
"X *.r.x.x.% X X X X X X X X X X X X X X X X X X X X X X X X X X X X X X G F S u u 0 r u u u u i 9 u c : 6 6 6 6 > - - , k.F.r.7.",
"X *.r.x.x.% X X X X X X X X X X X X X X X X X X X X X X X X X X X X X X G F S u u 0 r u u u u i 9 u c : 6 6 6 6 > - - , k.F.r.7.",
"X *.e.x.x.$ X X X X X X X X X X X X X X X X X X X X X X X X X X X X X X G F S u u 0 0 u u u u i 9 u c : 6 6 6 6 > - - , k.F.r.7.",
"X *.r.x.x.$ X X X X X X X X X X X X X X X X X X X X X X X X X X X X X X G F S u u y u u u y y t 0 u c : 1 1 3 3 ; - - , k.F.r.7.",
"X *.r.x.x.% X X X X X X X X X X X X X X X X X X X X X X X X X X X X X X G F S u u u u u u u i i i u i 7 7 7 7 7 > ; ; , k.F.r.7.",
"X *.r.x.x.% X X X X X X X X X X X X X X X X X X X X X X X X X X X X X X G F S u u u u u u u u u u u i 6 6 6 6 6 > > > , k.F.r.7.",
"X *.r.x.x.% X X X X X X X X X X X X X X X X X X X X X X X X X X X X X X G F S u u u u i i i i i i u i 6 6 6 6 6 > > > , k.F.e.7.",
"X *.r.x.x.% X X X X X X X X X X X X X X X X X X X X X X X X X X X X X X G F S u u 0 > < < < 1 2 3 u c 1 1 1 1 3 ; ; > , k.F.e.7.",
"X *.r.x.x.% X X X X X X X X X X X X X X X X X X X X X X X X X X X X X X G F S u u r 7 7 7 7 3 3 3 u c - - O O O o o ; , k.D.e.7.",
"X *.r.x.x.% X X X X X X X X X X X X X X X X X X X X X X X X X X X X X X G F S u u 0 y v v c i i 9 u c : 1 < < , O O ; , k.D.e.7.",
"X *.r.x.x.% X X X X X X X X X X X X X X X X X X X X X X X X X X X X X X G F S u u 0 r c v v v C 0 u c : w t t t 3 , ; , k.D.r.7.",
"X *.r.x.x.% X X X X X X X X X X X X X X X X X X X X X X X X X X X X X X G F S u u 0 r u i i u i 9 u c : 6 6 6 6 > - ; , k.F.r.7.",
"X *.r.x.x.% X X X X X X X X X X X X X X X X X X X X X X X X X X X X X X G F S u u 0 r u u u u i 9 u c : 6 6 6 6 > - - , k.F.r.7.",
"X *.r.x.x.% X X X X X X X X X X X X X X X X X X X X X X X X X X X X X X G F S u u 0 r u u u u i 9 u c : 6 6 6 6 > - - , k.F.r.7.",
"X *.e.x.x.$ X X X X X X X X X X X X X X X X X X X X X X X X X X X X X X G F S u u 0 r u u u u i 9 u c : 6 6 6 6 > - - , k.F.r.7.",
"X *.r.x.x.$ X X X X X X X X X X X X X X X X X X X X X X X X X X X X X X G F S u u 0 r u u u u i 9 u c : 6 6 6 6 > - - , k.F.r.7.",
"X *.r.x.x.% X X X X X X X X X X X X X X X X X X X X X X X X X X X X X X G F S u u 0 r u u u u i 9 u c : 6 6 6 6 > - - , k.F.r.7.",
"X *.r.x.x.% X X X X X X X X X X X X X X X X X X X X X X X X X X X X X X G F S u u 0 r u u u u i 9 u c : 6 6 6 6 > - - , k.F.r.7.",
"X *.r.x.x.% X X X X X X X X X X X X X X X X X X X X X X X X X X X X X X G F S u u 0 r u u u u i 9 u c : 6 6 6 6 > - - , k.F.e.7.",
"X *.r.x.x.% X X X X X X X X X X X X X X X X X X X X X X X X X X X X X X G F S u u 0 r u u u u i 9 u c : 6 6 6 6 > - - , k.F.e.7.",
"X *.r.x.x.% X X X X X X X X X X X X X X X X X X X X X X X X X X X X X X H 5.T K 1.P 0 u u u u i 9 u c : 6 6 6 6 > - - , k.D.e.7.",
"X *.r.x.x.% X X X X X X X X X X X X X X X X X X X X X X X X X X X X X X Q V.R <.V.b.3.2.b u u i 9 u c : 6 6 6 6 > - - , k.D.e.7.",
"X *.r.x.x.% X X X X X X X X X X X X X X X X X X X X X X X X X X X X X X Q V.R <.n.m.V.V.6.u u i 9 u c : 6 6 6 6 > - - , k.D.r.7.",
"X *.r.x.x.% X X X X X X X X X X X X X X X X X X X X X X X X X X X X X X Q V.R <.m.n.m.B.~ u u i 9 u c : 6 6 6 6 > - - , k.F.r.7.",
"X *.r.x.x.% X X X X X X X X X X X X X X X X X X X X X X X X X X X X X X Q V.R <.V.p.N Z u u u i 9 u c : 6 6 6 6 > - - , k.F.r.7.",
"X *.r.x.x.% X X X X X X X X X X X X X X X X X X X X X X X X X X X X X X Q V.R <.,.y.0 u u u u i 9 u c : 6 6 6 6 > - - , k.F.r.7.",
"X *.e.x.x.$ X X X X X X X X X X X X X X X X X X X X X X X X X X X X X X Q V.R <.` ;.0 u u u u i 9 u c : 6 6 6 6 > - - , k.F.r.7.",
"X *.r.x.x.$ X X X X X X X X X X X X X X X X X X X X X X X X X X X X X X Q V.E <.u.i.0 u u u u i 9 u c : 6 6 6 6 > - - , k.F.r.7.",
"X *.r.x.x.% X X X X X X X X X X X X X X X X X X X X X X X X X X X X X X G W D l Z x r u u u u i 9 u c : 6 6 6 6 > - - , k.F.r.7.",
"X *.r.x.x.% X X X X X X X X X X X X X X X X X X X X X X X X X X X X X X G F S u u 0 r u u u u i 9 u c : 6 6 6 6 > - - , k.F.r.7.",
"X *.r.x.x.% X X X X X X X X X X X X X X X X X X X X X X X X X X X X X X G F S u u 0 r u u u u i 9 u c : 6 6 6 6 > - - , k.F.e.7.",
"X *.r.x.x.% X X X X X X X X X X X X X X X X X X X X X X X X X X X X X X G F S u u 0 r u u u u i 9 u c : 6 6 6 6 > - - , k.F.e.7.",
"X *.r.x.x.% X X X X X X X X X X X X X X X X X X X X X X X X X X X X X X G F S u u 0 7 0 0 0 0 0 4 u c : < 1 1 1 - O - , k.D.e.7.",
"X *.r.x.x.% X X X X X X X X X X X X X X X X X X X X X X X X X X X X X X G F S u u t u u y y y y t u c < 3 3 3 3 ; - - , k.D.e.7.",
"X *.r.x.x.% X X X X X X X X X X X X X X X X X X X X X X X X X X X X X X G F S u u i c c c c n n n a b 7 8 8 8 8 , , > , k.D.r.7.",
"X *.r.x.x.% X X X X X X X X X X X X X X X X X X X X X X X X X X X X X X G F S u u u u u u s b.G.C.S.N.! ~ h 6 6 > > > , k.F.r.7.",
"X *.r.x.x.% X X X X X X X X X X X X X X X X X X X X X X X X X X X X X X G F S u u u u i i a J ! L L L z z q 6 6 > > > , k.F.r.7.",
"X *.r.x.x.% X X X X X X X X X X X X X X X X X X X X X X X X X X X X X X G F S u u y 0 0 0 0 0 0 0 u c 1 < < < < = = ; , k.F.r.7.",
"X *.e.x.x.$ X X X X X X X X X X X X X X X X X X X X X X X X X X X X X X G F S u u 0 r u u u u u 9 u c : 3 6 6 3 ; - ; , k.F.r.7.",
"X *.r.x.x.$ X X X X X X X X X X X X X X X X X X X X X X X X X X X X X X G F S u u 0 t c c c c v 9 u c : 8 8 8 8 , ; ; , k.F.r.7.",
"X *.r.x.x.% X X X X X X X X X X X X X X X X X X X X X X X X X X X X X X G F S u u 0 r u u u u i 9 u c : 6 6 6 6 > - - , k.F.r.7.",
"X *.r.x.x.% X X X X X X X X X X X X X X X X X X X X X X X X X X X X X X G F S u u 0 r u u u u i 9 u c : 6 6 6 6 > - - , k.F.r.7.",
"X *.r.x.x.% X X X X X X X X X X X X X X X X X X X X X X X X X X X X X X G F S u u 0 r u u u u i 9 u c : 6 6 6 6 > - - , k.F.e.7.",
"X *.r.x.x.% X X X X X X X X X X X X X X X X X X X X X X X X X X X X X X G F S u u 0 r u u u u i 9 u c : 6 6 6 6 > - - , k.F.e.7.",
"X *.r.x.x.% X X X X X X X X X X X X X X X X X X X X X X X X X X X X X X G F S u u 0 r u u u u i 9 u c : 6 6 6 6 > - - , k.D.e.7.",
"X *.r.x.x.% X X X X X X X X X X X X X X X X X X X X X X X X X X X X X X G F S u u 0 r u u u u i 9 u c : 6 6 6 6 > - - , k.F.e.7.",
"X *.r.x.x.% X X X X X X X X X X X X X X X X X X X X X X X X X X X X X X G F S u u 0 r u u u u i 9 u c : 6 6 6 6 > - - , k.F.r.7.",
"X *.r.x.x.% X X X X X X X X X X X X X X X X X X X X X X X X X X X X X X G F S u u 0 r i i i u i 9 u c : 6 6 6 6 > - - , k.F.r.7.",
"X *.r.x.x.% X X X X X X X X X X X X X X X X X X X X X X X X X X X X X X G F S u u r r t t t t t r u c < 3 3 3 3 ; ; ; , k.F.r.7.",
"X *.r.x.x.% X X X X X X X X X X X X X X X X X X X X X X X X X X X X X X G F S u u u i i i i i i i u i 7 7 7 7 6 > > > , k.D.r.7.",
"X *.r.V.C.) @ @ @ @ @ @ @ @ @ @ @ @ @ @ @ @ @ @ @ @ @ @ @ @ @ @ @ @ @ # G F S u u u u u u u u u u u i 7 7 7 q e 5 d f g Z.V.g.7.",
"X =.r.C.C.A.A.A.A.A.A.A.A.A.A.A.A.A.A.A.A.A.A.A.A.A.A.A.A.A.A.A.A.A.A.A.f.f.a.q.a.a.s.s.d.M.M.N.N.C.C.C.C.A.A.A.A.A.A.C.C.C.j.8."
};
