/* XPM */
static char *_9ac2821b50e4068bc7253a7ed5c9f134aYoJUk51af2kQkN[] = {
/* columns rows colors chars-per-pixel */
"64 64 114 2 ",
"   c #001331",
".  c #483F4A",
"X  c #474857",
"o  c #7E7274",
"O  c #874400",
"+  c #894600",
"@  c #8E4A00",
"#  c #934201",
"$  c #934D00",
"%  c #9D4D01",
"&  c #995201",
"*  c #9E5901",
"=  c #A04F01",
"-  c #A45400",
";  c #A85700",
":  c #A05A01",
">  c #AE5E00",
",  c #A76001",
"<  c #AD6201",
"1  c #B36500",
"2  c #B66A00",
"3  c #BD6F00",
"4  c #BE7000",
"5  c #C17301",
"6  c #C37B01",
"7  c #C97E00",
"8  c #B47642",
"9  c #B57842",
"0  c #BA7C43",
"q  c #847877",
"w  c #CE8501",
"e  c #D08701",
"r  c #D18901",
"t  c #C28434",
"y  c #C1873D",
"u  c #C3893E",
"i  c #C18741",
"p  c #C38A43",
"a  c #CD924A",
"s  c #D29140",
"d  c #C5955F",
"f  c #C7985F",
"g  c #C9985F",
"h  c #D99C57",
"j  c #D99C58",
"k  c #C79862",
"l  c #CA9A60",
"z  c #CB9E6A",
"x  c #D09F62",
"c  c #E4AE75",
"v  c #6C7497",
"b  c #7987AD",
"n  c #9D8B85",
"m  c #8B879A",
"M  c #918D9E",
"N  c #A49089",
"B  c #AA958C",
"V  c #B69F97",
"C  c #B39F99",
"Z  c #9593AC",
"A  c #A19FB9",
"S  c #9BA0BE",
"D  c #CAA787",
"F  c #C8AC9C",
"G  c #C5AEA9",
"H  c #CCB6AC",
"J  c #D5B6A3",
"K  c #C5B2B5",
"L  c #FAD1B6",
"P  c #F6D1BC",
"I  c #FBD3B9",
"U  c #FFD9BC",
"Y  c #899EC6",
"T  c #8A9FC8",
"R  c #94A8CC",
"E  c #9AACCB",
"W  c #9DAFD3",
"Q  c #9EB0D2",
"!  c #B6B4CE",
"~  c #A2B5D3",
"^  c #A6B9D5",
"/  c #BDBBD6",
"(  c #CFBFC3",
")  c #C8BDCB",
"_  c #C0BCDF",
"`  c #D1C1C3",
"'  c #D5CBD5",
"]  c #FBDBC7",
"[  c #FDDCCB",
"{  c #EADBDF",
"}  c #FCE1CF",
"|  c #FDE3D3",
" . c #FEEADD",
".. c #C5C0E0",
"X. c #C3C3ED",
"o. c #CCCBEE",
"O. c #C9CBF2",
"+. c #D4D4F3",
"@. c #D7D9F6",
"#. c #D1D6FE",
"$. c #D4D9FF",
"%. c #D7DCFF",
"&. c #DDDEFF",
"*. c #EBDCE3",
"=. c #DFE1FF",
"-. c #EBE2EA",
";. c #FEEEE4",
":. c #E2E3FF",
">. c #E6E7FF",
",. c #E7E8FF",
"<. c #EAEBFF",
"1. c #EDEEFF",
"2. c #EFF0FF",
"3. c #F1F1FF",
/* pixels */
"  N I } | M v v v v E ^ Q Y R ^ ^ ^ ^ ^ E Y Y Y Y Y Q Y ~ ^ ^ ^ ^ ^ ^ ^ ~ Y W Y Y Y Y Y Y Y Y Y Y Y Y Y Y T b v v v v G ;.I U X ",
"  F L  .[ j j j j j h h h j j j j j j j j j j j j j h h j j j j j j j j h h j j j j j j j j j j j j j j j j j j j j j c  .] I q ",
"  J L ;.[ 3 3 3 3 3 3 3 3 3 3 3 3 3 3 3 3 3 3 3 3 3 3 3 3 3 3 3 3 3 3 3 3 3 3 3 3 3 3 3 3 3 3 3 3 3 3 3 3 3 3 3 3 3 3 s | } L n ",
"  J L ;.[ 3 3 3 3 3 3 3 3 3 3 3 3 3 3 3 3 3 3 3 3 3 3 3 3 3 3 3 3 3 3 3 3 3 3 3 3 3 3 3 3 3 3 3 3 3 3 3 3 3 3 3 3 3 3 s | | L B ",
"  J L ;.[ 3 3 3 3 3 3 3 4 4 4 4 4 4 4 4 4 4 4 4 4 4 4 4 4 4 4 3 3 3 3 3 3 4 4 4 4 4 4 4 4 4 4 4 4 4 4 4 4 4 4 3 3 3 3 s | | L B ",
"  J L ;.[ 3 3 3 3 3 3 4 & % = = = = % % % % % % % % % % % % $ 3 3 3 3 3 2 $ - = = = = % % % % % % % % % % % $ 2 3 3 3 s | | L B ",
"  J L ;.[ 3 3 3 3 3 3 4 @ & e w w w w w w w w w w w w w w : $ 3 3 3 3 3 2 + 4 w w w w w w w w w w w w w w 6 O 1 3 3 3 s | | L B ",
"  J L ;.[ 3 3 3 3 3 3 4 @ $ 4 3 3 3 3 3 3 3 3 3 3 3 3 3 3 & $ 3 3 3 3 3 2 + < 3 3 3 3 3 3 3 3 3 3 3 3 3 3 1 O 1 3 3 3 s | | L B ",
"  J L ;.[ 3 3 3 3 3 3 4 @ $ 5 3 3 3 3 3 3 3 3 3 3 3 3 3 4 & $ 3 3 3 3 3 2 + < 3 3 3 3 3 3 3 3 3 3 3 3 3 3 1 O 1 3 3 3 s | | L B ",
"  J L ;.[ 3 3 3 3 3 3 4 @ $ 5 3 3 3 3 3 3 3 3 3 3 3 3 3 4 & @ 3 3 3 3 3 2 + < 3 3 3 3 3 3 3 3 3 3 3 3 3 3 1 O 1 3 3 3 s | | L B ",
"  J L ;.[ 3 3 3 3 3 3 4 @ $ 5 3 3 3 3 3 3 3 3 3 3 3 3 3 4 & @ 3 3 3 3 3 2 + < 3 3 3 3 3 3 3 3 3 3 3 3 3 3 1 O 1 3 3 3 s | | L B ",
"  J L ;.[ 3 3 3 3 3 3 4 @ $ 5 3 3 3 3 3 3 3 3 3 3 3 3 3 4 & @ 3 3 3 3 3 2 + < 3 3 3 3 3 3 3 3 3 3 3 3 3 3 1 O 1 3 3 3 s | | L B ",
"  J L ;.[ 3 3 3 3 3 3 4 @ $ 5 3 3 3 3 3 3 3 3 3 3 3 3 3 4 & @ 3 3 3 3 3 2 + < 3 3 3 3 3 3 3 3 3 3 3 3 3 3 1 O 1 3 3 3 s | | L B ",
"  J L ;.[ 3 3 3 3 3 3 4 @ $ 5 3 3 3 3 3 3 3 3 3 3 3 3 3 4 & @ 3 3 3 3 3 2 + < 3 3 3 3 3 3 3 3 3 3 3 3 3 3 1 O < 4 3 3 s | | L B ",
"  J L ;.[ 3 3 3 3 3 3 4 @ $ 5 3 3 3 3 3 3 3 3 3 3 3 3 3 4 & @ 3 3 3 3 3 2 + < 3 3 3 3 3 3 3 3 3 3 3 3 3 3 1 O < 4 3 3 s | | L B ",
"  J L ;.[ 3 3 3 3 3 3 4 @ & 1 1 1 1 1 1 1 1 1 1 1 1 1 1 1 & @ 3 3 3 3 3 2 @ > 1 1 1 1 1 1 1 1 1 1 1 1 1 1 < + < 4 3 3 s | | L B ",
"  J L ;.[ 3 3 3 3 3 3 4 1 4 4 4 4 4 4 4 4 4 4 4 4 4 4 4 4 4 2 3 3 3 3 3 3 3 4 4 4 4 4 4 4 4 4 4 4 4 4 4 4 4 4 2 4 3 3 s | | L B ",
"  J L ;.[ 3 3 3 3 3 3 3 3 3 3 3 3 3 3 3 3 3 3 3 3 3 3 3 3 3 3 3 3 3 3 3 3 3 3 3 3 3 3 3 3 3 3 3 3 3 3 3 3 3 3 3 3 3 3 s | | L B ",
"  J L ;.[ 3 3 3 3 3 3 3 3 3 3 3 3 3 3 3 3 3 3 3 3 3 3 3 3 3 3 3 3 3 3 3 3 3 3 3 3 3 3 3 3 3 3 3 3 3 3 3 3 3 3 3 3 3 3 s | | L B ",
"  J L ;.[ 3 3 3 3 3 3 3 1 1 1 1 1 1 1 1 < > > > > > > > > > > 3 3 3 3 3 3 1 1 1 1 1 1 1 1 > > > > > > > > > ; 2 3 3 3 s | | L B ",
"  J L ;.[ 3 3 3 3 3 3 4 + # # # # # # # # # # # # # # # # # @ 3 3 3 3 3 2 + # # # # # # # # # # # # # # # # + 2 3 3 3 s | | L B ",
"  J L ;.[ 3 3 3 3 3 3 4 @ & 1 > > > > > > > > > > > > > < & $ 3 3 3 3 3 2 + ; > > > > > > > > > > > > > > > + 2 3 3 3 s | | L B ",
"  J L ;.[ 3 3 3 3 3 3 4 @ & r w w w w w w w w w w w w w r * $ 3 3 3 3 3 2 + 4 w w w w w w w w w w w w w w 6 O 1 3 3 3 s | | L B ",
"  J L ;.[ 3 3 3 3 3 3 4 @ $ 5 3 3 3 3 3 3 3 3 3 3 3 3 3 4 & $ 3 3 3 3 3 2 + < 3 3 3 3 3 3 3 3 3 3 3 3 3 3 1 O 1 3 3 3 s | | L B ",
"  J L ;.[ 3 3 3 3 3 3 4 @ $ 5 3 3 3 3 3 3 3 3 3 3 3 3 3 4 & $ 3 3 3 3 3 2 + < 3 3 3 3 3 3 3 3 3 3 3 3 3 3 1 O 1 3 3 3 s | | L B ",
"  J L ;.[ 3 3 3 3 3 3 4 @ $ 5 3 3 3 3 3 3 3 3 3 3 3 3 3 4 & $ 3 3 3 3 3 2 + < 3 3 3 3 3 3 3 3 3 3 3 3 3 3 1 O 1 3 3 3 s | | L B ",
"  J L ;.[ 3 3 3 3 3 3 4 @ $ 5 3 3 3 3 3 3 3 3 3 3 3 3 3 4 & $ 3 3 3 3 3 2 + < 3 3 3 3 3 3 3 3 3 3 3 3 3 3 1 O 1 3 3 3 s | | L B ",
"  J L ;.[ 3 3 3 3 3 3 4 @ $ 5 3 3 3 3 3 3 3 3 3 3 3 3 3 4 & @ 3 3 3 3 3 2 + < 3 3 3 3 3 3 3 3 3 3 3 3 3 3 1 O 1 3 3 3 s | | L B ",
"  J L ;.[ 3 3 3 3 3 3 4 @ $ 5 3 3 3 3 3 3 3 3 3 3 3 3 3 4 & @ 3 3 3 3 3 2 + < 3 3 3 3 3 3 3 3 3 3 3 3 3 3 1 O 1 3 3 3 s | | L B ",
"  J L ;.[ 3 3 3 3 3 3 4 @ $ 5 3 3 3 3 3 3 3 3 3 3 3 3 3 4 & @ 3 3 3 3 3 2 + < 3 3 3 3 3 3 3 3 3 3 3 3 3 3 1 O 1 3 3 3 s | | L B ",
"  J L ;.[ 3 3 3 3 3 3 4 @ $ 5 3 3 3 3 3 3 3 3 3 3 3 3 3 4 & @ 3 3 3 3 3 2 + < 3 3 3 3 3 3 3 3 3 3 3 3 3 3 1 O 1 3 3 3 s | | L B ",
"  J L ;.[ 3 3 3 3 3 3 4 @ $ 5 3 3 3 3 3 3 3 3 3 3 3 3 3 4 & @ 3 3 3 3 3 2 + < 3 3 3 3 3 3 3 3 3 3 3 3 3 3 1 O 1 3 3 3 s | | L B ",
"  J L ;.[ 3 3 t u y p 4 @ $ 5 3 3 3 3 3 3 3 3 3 3 3 3 3 4 & @ 3 3 3 3 3 2 + < 3 3 3 3 3 3 3 3 3 3 3 3 3 3 1 O 1 3 3 3 s | | L B ",
"  J L ;.[ 3 3 ( @.+.$.3 @ $ 5 3 3 3 3 3 3 3 3 3 3 3 3 3 4 & @ 3 3 3 3 3 2 + < 3 3 3 3 3 3 3 3 3 3 3 3 3 3 1 O 1 3 3 3 s | | L B ",
"  J L ;.[ 3 4 ' +.+.@.z @ $ 5 3 3 3 3 3 3 3 3 3 3 3 3 3 4 & @ 3 3 3 3 3 2 + < 3 3 3 3 3 3 3 3 3 3 3 3 3 3 1 O 1 3 3 3 s | | L B ",
"  J L ;.[ 3 4 ) o.o.O.f @ $ 5 3 3 3 3 3 3 3 3 3 3 3 3 3 4 & @ 3 3 3 3 3 2 + < 3 3 3 3 3 3 3 3 3 3 3 3 3 3 1 O 1 3 3 3 s | | L B ",
"  J L ;.[ 3 3 K .._ X.3 @ $ 5 3 3 3 3 3 3 3 3 3 3 3 3 3 4 & @ 3 3 3 3 3 2 + < 3 3 3 3 3 3 3 3 3 3 3 3 3 3 1 O 1 3 3 3 s | | L B ",
"  J L ;.[ 3 3 ( / A #.3 @ $ 5 3 3 3 3 3 3 3 3 3 3 3 3 3 4 & @ 3 3 3 3 3 2 + < 3 3 3 3 3 3 3 3 3 3 3 3 3 3 1 O 1 3 3 3 s | | L B ",
"  J L ;.[ 3 3 ` m . #.3 @ $ 5 3 3 3 3 3 3 3 3 3 3 3 3 3 4 & @ 3 3 3 3 3 2 + < 3 3 3 3 3 3 3 3 3 3 3 3 3 3 1 O < 4 3 3 s | | L B ",
"  J L ;.[ 3 3 ` ! Z #.3 @ $ 5 3 3 3 3 3 3 3 3 3 3 3 3 3 4 & @ 3 3 3 3 3 2 + < 3 3 3 3 3 3 3 3 3 3 3 3 3 3 1 O < 4 3 3 s | | L B ",
"  J L ;.[ 3 3 t p i p 3 @ $ 5 3 3 3 3 3 3 3 3 3 3 3 3 3 4 & @ 3 3 3 3 3 2 + < 3 3 3 3 3 3 3 3 3 3 3 3 3 3 1 O < 4 3 3 s | | L B ",
"  J L ;.[ 3 3 3 3 3 3 4 @ $ 5 3 3 3 3 3 3 3 3 3 3 3 3 3 4 & @ 3 3 3 3 3 2 + < 3 3 3 3 3 3 3 3 3 3 3 3 3 3 1 O < 4 3 3 s | | L B ",
"  J L ;.[ 3 3 3 3 3 3 4 @ $ 5 3 3 3 3 3 3 3 3 3 3 3 3 3 4 & @ 3 3 3 3 3 2 + < 3 3 3 3 3 3 3 3 3 3 3 3 3 3 1 O < 4 3 3 s | | L B ",
"  J L ;.[ 3 3 3 3 3 3 4 @ $ 5 3 3 3 3 3 3 3 3 3 3 3 3 3 4 & @ 3 3 3 3 3 2 + < 3 3 3 3 3 3 3 3 3 3 3 3 3 3 1 O < 4 3 3 s | | L B ",
"  J L ;.[ 3 3 3 3 3 3 4 @ & ; ; ; ; ; ; ; ; ; ; ; ; ; ; ; & @ 3 3 3 3 3 2 + - ; ; ; ; ; ; ; ; ; ; ; ; ; ; ; @ < 4 3 3 s | | L B ",
"  J L ;.[ 3 3 3 3 3 3 3 : 5 5 5 5 5 5 5 5 5 5 5 5 5 5 5 5 5 , 3 3 3 3 3 3 3 5 5 5 5 5 5 5 5 5 5 5 5 5 5 5 5 3 < 4 3 3 s | | L B ",
"  J L ;.[ 3 3 3 3 3 3 3 4 4 4 4 4 4 4 4 4 4 4 3 k l l l x l d g g g g d d g l l x l 3 4 4 4 4 4 4 4 4 4 4 4 4 3 3 3 3 s | | L B ",
"  J L ;.[ 3 3 3 3 3 3 3 3 3 3 3 3 3 3 3 3 3 3 3 %.,.2.3.>.:.>.>.>.>.&.&.>.>.1.3.<.=.2 3 3 3 3 3 3 3 3 3 3 3 3 3 3 3 3 s | | L B ",
"  J L ;.[ 3 3 3 3 3 3 3 3 3 3 3 3 3 3 3 3 3 3 3 8 0 0 8 8 8 8 8 9 8 8 9 9 0 0 9 9 9 3 3 3 3 3 3 3 3 3 3 3 3 3 3 3 3 3 s | | L B ",
"  J L ;.[ 3 3 3 3 3 3 4 * - - - - - - - - - - - - - - - - - * 4 4 4 4 4 3 - - - - - - - - - - - - - - - - - & 2 3 3 3 s | | L B ",
"  J L ;.[ 3 3 3 3 3 3 4 @ & w 7 7 7 7 7 7 7 7 7 7 7 7 7 w * $ 3 3 3 3 3 2 + 2 7 7 7 7 7 7 7 7 7 7 7 7 7 7 4 O 1 3 3 3 s | | L B ",
"  J L ;.[ 3 3 3 3 3 3 4 @ $ 5 4 4 4 4 4 4 4 4 4 4 4 4 4 4 & $ 3 3 3 3 3 2 + < 4 4 4 4 4 4 4 4 4 4 4 4 4 4 2 O 1 3 3 3 s | | L B ",
"  J L ;.[ 3 3 3 3 3 3 4 @ $ 5 3 3 3 3 3 3 3 3 3 3 3 3 3 4 & $ 3 3 3 3 3 2 + < 3 3 3 3 3 3 3 3 3 3 3 3 3 3 1 O 1 3 3 3 s | | L B ",
"  J L ;.[ 3 3 3 3 3 3 4 @ $ 5 3 3 3 3 3 3 3 3 3 3 3 3 3 4 & @ 3 3 3 3 3 2 + < 3 3 3 3 3 3 3 3 3 3 3 3 3 3 1 O 1 3 3 3 s | | L B ",
"  J L ;.[ 3 3 3 3 3 3 4 @ $ 5 3 3 3 3 3 3 3 3 3 3 3 3 3 4 & @ 3 3 3 3 3 2 + < 3 3 3 3 3 3 3 3 3 3 3 3 3 3 1 O 1 3 3 3 s | | L B ",
"  J L ;.[ 3 3 3 3 3 3 4 @ $ 5 3 3 3 3 3 3 3 3 3 3 3 3 3 4 & @ 3 3 3 3 3 2 + < 3 3 3 3 3 3 3 3 3 3 3 3 3 3 1 O 1 3 3 3 s | | L B ",
"  J L ;.[ 3 3 3 3 3 3 4 @ $ 5 3 3 3 3 3 3 3 3 3 3 3 3 3 4 & @ 3 3 3 3 3 2 + < 3 3 3 3 3 3 3 3 3 3 3 3 3 3 1 O 1 3 3 3 s | | L B ",
"  J L ;.[ 3 3 3 3 3 3 4 @ $ 5 3 3 3 3 3 3 3 3 3 3 3 3 3 4 & @ 3 3 3 3 3 2 + < 3 3 3 3 3 3 3 3 3 3 3 3 3 3 1 O < 4 3 3 s | | L B ",
"  J L ;.[ 3 3 3 3 3 3 4 @ $ 5 3 3 3 3 3 3 3 3 3 3 3 3 3 4 & @ 3 3 3 3 3 2 + < 3 3 3 3 3 3 3 3 3 3 3 3 3 3 1 O < 4 3 3 s | | L B ",
"  J L ;.[ 3 3 3 3 3 3 4 @ $ 1 1 1 1 1 1 1 1 1 1 1 1 1 1 1 & @ 3 3 3 3 3 2 + > 1 1 1 1 1 1 1 1 1 1 1 1 1 1 < + < 4 3 3 s | | L B ",
"  J L ;.[ 3 3 3 3 3 3 3 2 5 5 5 5 5 5 5 5 5 5 5 5 5 5 5 5 5 2 3 3 3 3 3 3 4 5 5 5 5 5 5 5 5 5 5 5 5 5 5 5 5 4 2 3 3 3 s | | L B ",
"  J P -.*.3 3 3 3 3 3 3 3 3 3 3 3 3 3 3 3 3 3 3 3 3 3 3 3 3 3 3 3 3 3 3 3 3 3 3 3 3 3 3 3 3 3 3 3 3 3 3 3 3 3 3 3 3 3 a *.{ I B ",
"  J P +.@.D D D D D D D D D D D D D D D D D D D D D D D D D D D D D D D D D D D D D D D D D D D D D D D D D D D D D D H +.+.P B ",
"  n C S S S S S S S S S S S S S S S S S S S S S S S S S S S S S S S S S S S S S S S S S S S S S S S S S S S S S S S S S S S V o "
};
